# xmcd
#
# Track frame offsets:
# 150
# 18475
# 36037
# 52442
# 66382
# 83605
# 100297
# 114060
# 136882
# 148427
# 160752
#
# Disc length: 2293 seconds
#
#
# Revision: 0
# Processed by: cddbd v1.4PL0 Copyright (c) Steve Scherf et al.
# Submitted via: FreeRIP 2.30 
#
DISCID=9808f30b
DTITLE=Chris Hanlin - Solo Daddy
DYEAR=1997
DGENRE=blues
TTITLE0=When I Lay My Burden Down
TTITLE1=Catfish Blues
TTITLE2=Must Jesus Bear The Cross Alone?
TTITLE3=Angels Laid Him Away
TTITLE4=Hobo Blues
TTITLE5=Banks Of The Wabash
TTITLE6=Let Us Get Together
TTITLE7=Death Don't Have No Mercy
TTITLE8=Take Me Back
TTITLE9=Honest I Do
TTITLE10=God Will Take Care Of You
EXTD=
EXTT0=
EXTT1=
EXTT2=
EXTT3=
EXTT4=
EXTT5=
EXTT6=
EXTT7=
EXTT8=
EXTT9=
EXTT10=
PLAYORDER=
